<?xml version="1.0" encoding="UTF-8"?>
<svg width="32px" height="32px" viewBox="0 0 32 32" version="1.1" xmlns="http://www.w3.org/2000/svg" xmlns:xlink="http://www.w3.org/1999/xlink">
    <!-- Generator: Sketch 53.2 (72643) - https://sketchapp.com -->
    <title>icon/file/attachment_32</title>
    <desc>Created with Sketch.</desc>
    <defs>
        <polygon id="path-1" points="0 16 16 16 16 0 0 0"></polygon>
    </defs>
    <g id="icon/file/attachment_32" stroke="none" stroke-width="1" fill="none" fill-rule="evenodd">
        <rect id="boxIcon" fill-opacity="0" fill="#FFFFFF" x="0" y="0" width="32" height="32"></rect>
        <g id="icon_file" transform="translate(3.000000, 0.000000)">
            <path d="M3,-5.62410556e-16 L17,-3.18699315e-15 L26,9 L26,29 C26,30.6568542 24.6568542,32 23,32 L3,32 C1.34314575,32 2.02906125e-16,30.6568542 0,29 L4.4408921e-16,3 C2.41183085e-16,1.34314575 1.34314575,3.04359188e-16 3,0 Z" id="Rectangle" fill="#58A8EF"></path>
            <path d="M17,0 L26,9 L19,9 C17.8954305,9 17,8.1045695 17,7 L17,0 Z" id="Rectangle" fill-opacity="0.23" fill="#000000"></path>
        </g>
        <g id="icon" transform="translate(16.000000, 18.000000) scale(1, -1) rotate(90.000000) translate(-16.000000, -18.000000) translate(8.000000, 10.000000)">
            <mask id="mask-2" fill="white">
                <use xlink:href="#path-1"></use>
            </mask>
            <g id="boxIcon"></g>
            <path d="M11.2,3.32000031 C13.0752569,3.32000031 14.6,4.84474336 14.6,6.72000031 C14.6,8.59525726 13.0752569,10.1200003 11.2,10.1200003 L6.2504,10.1200003 C5.08166948,10.1200003 4.1312,9.16898379 4.1312,8.00000031 C4.1312,6.83101682 5.08166948,5.88000031 6.2504,5.88000031 L10.3968,5.88000031 C10.7720569,5.88000031 11.0768,6.18474336 11.0768,6.56000031 C11.0768,6.93583266 10.7722819,7.24000031 10.3968,7.24000031 L6.2504,7.24000031 C5.83195891,7.24000031 5.4912,7.58095539 5.4912,8.00000031 C5.4912,8.41904522 5.83195891,8.76000031 6.2504,8.76000031 L11.2,8.76000031 C12.3247431,8.76000031 13.24,7.84474336 13.24,6.72000031 C13.24,5.59525726 12.3247431,4.68000031 11.2,4.68000031 L6.08,4.68000031 C4.24965695,4.68000031 2.76,6.16965726 2.76,8.00000031 C2.76,9.83034336 4.24965695,11.3200003 6.08,11.3200003 L10.3968,11.3200003 C10.7720569,11.3200003 11.0768,11.6247434 11.0768,12.0000003 C11.0768,12.3752573 10.7720569,12.6800003 10.3968,12.6800003 L6.08,12.6800003 C3.49914305,12.6800003 1.4,10.5808573 1.4,8.00000031 C1.4,5.41914336 3.49914305,3.32000031 6.08,3.32000031 L11.2,3.32000031 Z" id="fill" fill-opacity="0.850000024" fill="#FFFFFF" fill-rule="nonzero" mask="url(#mask-2)"></path>
        </g>
    </g>
</svg>
