<?xml version="1.0" encoding="UTF-8"?>
<svg width="32px" height="32px" viewBox="0 0 32 32" version="1.1" xmlns="http://www.w3.org/2000/svg" xmlns:xlink="http://www.w3.org/1999/xlink">
    <!-- Generator: Sketch 53.2 (72643) - https://sketchapp.com -->
    <title>icon/file/sound_32</title>
    <desc>Created with Sketch.</desc>
    <g id="icon/file/sound_32" stroke="none" stroke-width="1" fill="none" fill-rule="evenodd">
        <rect id="boxIcon" fill-opacity="0" fill="#FFFFFF" x="0" y="0" width="32" height="32"></rect>
        <g id="icon_file" transform="translate(3.000000, 0.000000)">
            <path d="M3,-5.62410556e-16 L17,-3.18699315e-15 L26,9 L26,29 C26,30.6568542 24.6568542,32 23,32 L3,32 C1.34314575,32 2.02906125e-16,30.6568542 0,29 L4.4408921e-16,3 C2.41183085e-16,1.34314575 1.34314575,3.04359188e-16 3,0 Z" id="Rectangle" fill="#58A8EF"></path>
            <path d="M17,0 L26,9 L19,9 C17.8954305,9 17,8.1045695 17,7 L17,0 Z" id="Rectangle" fill-opacity="0.23" fill="#383838"></path>
        </g>
        <path d="M14.2311319,13.8020434 L19.7311319,12.3353767 C20.2647687,12.1930736 20.8127263,12.5103122 20.9550295,13.043949 C20.9774437,13.1280023 20.9887945,13.2146211 20.9887945,13.3016116 L20.9887945,22 C20.9910812,22.1320812 20.9910812,22.2260384 20.9887945,22.2818717 C20.9534808,23.1441264 20.1056169,23.9212003 18.9823475,24.0790655 C17.7518001,24.2520077 16.6452019,23.6163283 16.5106914,22.6592359 C16.3761808,21.7021435 17.2646942,20.7860694 18.4952416,20.6131273 C18.8426691,20.5642995 19.1802161,20.5799298 19.4887945,20.649053 L19.4887945,15.4 L14.9887945,16.6 L14.9887945,23.2692479 C14.9888355,23.4655209 14.9888355,23.5639485 14.9887945,23.5645309 C14.9283,24.4243812 13.973516,25.2093041 12.7313557,25.3838783 C11.3640808,25.5760363 10.1466432,24.9559344 10.0121326,23.9988419 C9.87762205,23.0417495 10.876975,22.110098 12.2442499,21.9179401 C12.6851012,21.8559825 13.1103753,21.8784686 13.4887945,21.9694674 L13.4887945,14.7682783 C13.4887945,14.3152276 13.7933785,13.9187776 14.2311319,13.8020434 Z" id="Combined-Shape" fill-opacity="0.89" fill="#FFFFFF"></path>
    </g>
</svg>
