<?xml version="1.0" encoding="UTF-8"?>
<svg width="84px" height="43px" viewBox="0 0 84 43" version="1.1" xmlns="http://www.w3.org/2000/svg" xmlns:xlink="http://www.w3.org/1999/xlink">
    <!-- Generator: Sketch 53.2 (72643) - https://sketchapp.com -->
    <title>icons</title>
    <desc>Created with Sketch.</desc>
    <defs>
        <rect id="path-1" x="0" y="0" width="88" height="48"></rect>
    </defs>
    <g id="Symbols" stroke="none" stroke-width="1" fill="none" fill-rule="evenodd">
        <g id="uploadbox/image/.normal/drag" transform="translate(-105.000000, -50.000000)">
            <g id="instruction" transform="translate(70.000000, 50.000000)">
                <g id="icons" transform="translate(34.000000, 0.000000)">
                    <mask id="mask-2" fill="white">
                        <use xlink:href="#path-1"></use>
                    </mask>
                    <use id="icon_scale" fill-opacity="0" fill="#FFFFFF" xlink:href="#path-1"></use>
                    <g id="icon_file_picture_right" mask="url(#mask-2)">
                        <g transform="translate(68.970039, 22.763057) rotate(20.000000) translate(-68.970039, -22.763057) translate(54.970039, 5.763057)">
                            <path d="M4,0 L18.41,0 L28,9.59 L28,30 C28,32.21 26.21,34 24,34 L4,34 C1.79,34 0,32.21 0,30 L0,4 C0,1.79 1.79,0 4,0 Z" id="Rectangle-5" fill="#FFFFFF" fill-rule="nonzero"></path>
                            <path d="M18.41,0 L4,0 C1.79,0 0,1.79 0,4 L0,30 C0,32.21 1.79,34 4,34 L24,34 C26.21,34 28,32.21 28,30 L28,9.59 L18.41,0 Z M19,2 L26,9 L20,9 C19.45,9 19,8.55 19,8 L19,2 Z M27,30 C27,31.66 25.66,33 24,33 L4,33 C2.34,33 1,31.66 1,30 L1,4 C1,2.34 2.34,1 4,1 L18,1 L18,8 C18,9.1 18.9,10 20,10 L27,10 L27,30 Z" id="Shape" fill="#D3AB78" fill-rule="nonzero"></path>
                            <path d="M11.89,19.93 C11.97,19.86 12.09,19.87 12.17,19.95 L13.78,21.7 L17.62,18.03 C17.7,17.95 17.83,17.96 17.9,18.04 C17.9,18.04 17.9,18.04 17.9,18.04 L20.5,20.78 L20.5,14 C20.5,13.45 20.05,13 19.5,13 L8.5,13 C7.95,13 7.5,13.45 7.5,14 L7.5,23.65 L11.89,19.93 Z M10.5,16 C11.05,16 11.5,16.45 11.5,17 C11.5,17.55 11.05,18 10.5,18 C9.95,18 9.5,17.55 9.5,17 C9.5,16.45 9.95,16 10.5,16 Z" id="Shape" fill="#F9F3EB" fill-rule="nonzero"></path>
                            <g id="Group" stroke-width="1" fill="none" fill-rule="evenodd" transform="translate(7.000000, 12.000000)">
                                <path d="M3.5,3.5 C2.67,3.5 2,4.17 2,5 C2,5.83 2.67,6.5 3.5,6.5 C4.33,6.5 5,5.83 5,5 C5,4.17 4.33,3.5 3.5,3.5 Z M3.5,5.5 C3.22,5.5 3,5.28 3,5 C3,4.72 3.22,4.5 3.5,4.5 C3.78,4.5 4,4.72 4,5 C4,5.28 3.78,5.5 3.5,5.5 Z" id="Shape" fill="#D3AB78" fill-rule="nonzero"></path>
                                <path d="M12.5,0.5 L1.5,0.5 C0.67,0.5 0,1.17 0,2 L0,13 L0,13 C0,13.83 0.67,14.5 1.5,14.5 L12.5,14.5 C13.33,14.5 14,13.83 14,13 L14,13 L14,2 C14,1.17 13.33,0.5 12.5,0.5 Z M13,13 C13,13.28 12.78,13.5 12.5,13.5 L1.5,13.5 C1.22,13.5 1,13.28 1,13 L1,12.53 L4.95,9.19 L6.59,10.98 C6.59,10.98 6.59,10.98 6.59,10.98 C6.67,11.06 6.79,11.06 6.87,10.99 L10.72,7.31 L13,9.7 L13,13 Z M10.9,6.03 C10.9,6.03 10.9,6.03 10.9,6.03 C10.82,5.95 10.7,5.95 10.62,6.02 L6.78,9.69 L5.17,7.94 C5.1,7.86 4.98,7.85 4.89,7.92 L1,11.22 L1,2 C1,1.72 1.22,1.5 1.5,1.5 L12.5,1.5 C12.78,1.5 13,1.72 13,2 L13,8.24 L10.9,6.03 Z" id="Shape" fill="#D3AB78" fill-rule="nonzero"></path>
                            </g>
                        </g>
                    </g>
                    <g id="icon_file_picture_left" mask="url(#mask-2)">
                        <g transform="translate(18.970039, 22.763057) rotate(-20.000000) translate(-18.970039, -22.763057) translate(4.970039, 5.763057)">
                            <path d="M4,0 L18.41,0 L28,9.59 L28,30 C28,32.21 26.21,34 24,34 L4,34 C1.79,34 0,32.21 0,30 L0,4 C0,1.79 1.79,0 4,0 Z" id="Rectangle-5" fill="#FFFFFF" fill-rule="nonzero"></path>
                            <path d="M18.41,0 L4,0 C1.79,0 0,1.79 0,4 L0,30 C0,32.21 1.79,34 4,34 L24,34 C26.21,34 28,32.21 28,30 L28,9.59 L18.41,0 Z M19,2 L26,9 L20,9 C19.45,9 19,8.55 19,8 L19,2 Z M27,30 C27,31.66 25.66,33 24,33 L4,33 C2.34,33 1,31.66 1,30 L1,4 C1,2.34 2.34,1 4,1 L18,1 L18,8 C18,9.1 18.9,10 20,10 L27,10 L27,30 Z" id="Shape" fill="#D3AB78" fill-rule="nonzero"></path>
                            <path d="M11.89,19.93 C11.97,19.86 12.09,19.87 12.17,19.95 L13.78,21.7 L17.62,18.03 C17.7,17.95 17.83,17.96 17.9,18.04 C17.9,18.04 17.9,18.04 17.9,18.04 L20.5,20.78 L20.5,14 C20.5,13.45 20.05,13 19.5,13 L8.5,13 C7.95,13 7.5,13.45 7.5,14 L7.5,23.65 L11.89,19.93 Z M10.5,16 C11.05,16 11.5,16.45 11.5,17 C11.5,17.55 11.05,18 10.5,18 C9.95,18 9.5,17.55 9.5,17 C9.5,16.45 9.95,16 10.5,16 Z" id="Shape" fill="#F9F3EB" fill-rule="nonzero"></path>
                            <g id="Group" stroke-width="1" fill="none" fill-rule="evenodd" transform="translate(7.000000, 12.000000)">
                                <path d="M3.5,3.5 C2.67,3.5 2,4.17 2,5 C2,5.83 2.67,6.5 3.5,6.5 C4.33,6.5 5,5.83 5,5 C5,4.17 4.33,3.5 3.5,3.5 Z M3.5,5.5 C3.22,5.5 3,5.28 3,5 C3,4.72 3.22,4.5 3.5,4.5 C3.78,4.5 4,4.72 4,5 C4,5.28 3.78,5.5 3.5,5.5 Z" id="Shape" fill="#D3AB78" fill-rule="nonzero"></path>
                                <path d="M12.5,0.5 L1.5,0.5 C0.67,0.5 0,1.17 0,2 L0,13 L0,13 C0,13.83 0.67,14.5 1.5,14.5 L12.5,14.5 C13.33,14.5 14,13.83 14,13 L14,13 L14,2 C14,1.17 13.33,0.5 12.5,0.5 Z M13,13 C13,13.28 12.78,13.5 12.5,13.5 L1.5,13.5 C1.22,13.5 1,13.28 1,13 L1,12.53 L4.95,9.19 L6.59,10.98 C6.59,10.98 6.59,10.98 6.59,10.98 C6.67,11.06 6.79,11.06 6.87,10.99 L10.72,7.31 L13,9.7 L13,13 Z M10.9,6.03 C10.9,6.03 10.9,6.03 10.9,6.03 C10.82,5.95 10.7,5.95 10.62,6.02 L6.78,9.69 L5.17,7.94 C5.1,7.86 4.98,7.85 4.89,7.92 L1,11.22 L1,2 C1,1.72 1.22,1.5 1.5,1.5 L12.5,1.5 C12.78,1.5 13,1.72 13,2 L13,8.24 L10.9,6.03 Z" id="Shape" fill="#D3AB78" fill-rule="nonzero"></path>
                            </g>
                        </g>
                    </g>
                    <g id="icon_file_picture" mask="url(#mask-2)">
                        <g transform="translate(30.000000, 0.000000)">
                            <path d="M4,0 L18.41,0 L28,9.59 L28,30 C28,32.21 26.21,34 24,34 L4,34 C1.79,34 0,32.21 0,30 L0,4 C0,1.79 1.79,0 4,0 Z" id="Rectangle-5" fill="#FFFFFF" fill-rule="nonzero"></path>
                            <path d="M18.41,0 L4,0 C1.79,0 0,1.79 0,4 L0,30 C0,32.21 1.79,34 4,34 L24,34 C26.21,34 28,32.21 28,30 L28,9.59 L18.41,0 Z M19,2 L26,9 L20,9 C19.45,9 19,8.55 19,8 L19,2 Z M27,30 C27,31.66 25.66,33 24,33 L4,33 C2.34,33 1,31.66 1,30 L1,4 C1,2.34 2.34,1 4,1 L18,1 L18,8 C18,9.1 18.9,10 20,10 L27,10 L27,30 Z" id="Shape" fill="#D3AB78" fill-rule="nonzero"></path>
                            <path d="M11.89,19.93 C11.97,19.86 12.09,19.87 12.17,19.95 L13.78,21.7 L17.62,18.03 C17.7,17.95 17.83,17.96 17.9,18.04 C17.9,18.04 17.9,18.04 17.9,18.04 L20.5,20.78 L20.5,14 C20.5,13.45 20.05,13 19.5,13 L8.5,13 C7.95,13 7.5,13.45 7.5,14 L7.5,23.65 L11.89,19.93 Z M10.5,16 C11.05,16 11.5,16.45 11.5,17 C11.5,17.55 11.05,18 10.5,18 C9.95,18 9.5,17.55 9.5,17 C9.5,16.45 9.95,16 10.5,16 Z" id="Shape" fill="#F9F3EB" fill-rule="nonzero"></path>
                            <g id="Group" stroke-width="1" fill="none" fill-rule="evenodd" transform="translate(7.000000, 12.000000)">
                                <path d="M3.5,3.5 C2.67,3.5 2,4.17 2,5 C2,5.83 2.67,6.5 3.5,6.5 C4.33,6.5 5,5.83 5,5 C5,4.17 4.33,3.5 3.5,3.5 Z M3.5,5.5 C3.22,5.5 3,5.28 3,5 C3,4.72 3.22,4.5 3.5,4.5 C3.78,4.5 4,4.72 4,5 C4,5.28 3.78,5.5 3.5,5.5 Z" id="Shape" fill="#D3AB78" fill-rule="nonzero"></path>
                                <path d="M12.5,0.5 L1.5,0.5 C0.67,0.5 0,1.17 0,2 L0,13 L0,13 C0,13.83 0.67,14.5 1.5,14.5 L12.5,14.5 C13.33,14.5 14,13.83 14,13 L14,13 L14,2 C14,1.17 13.33,0.5 12.5,0.5 Z M13,13 C13,13.28 12.78,13.5 12.5,13.5 L1.5,13.5 C1.22,13.5 1,13.28 1,13 L1,12.53 L4.95,9.19 L6.59,10.98 C6.59,10.98 6.59,10.98 6.59,10.98 C6.67,11.06 6.79,11.06 6.87,10.99 L10.72,7.31 L13,9.7 L13,13 Z M10.9,6.03 C10.9,6.03 10.9,6.03 10.9,6.03 C10.82,5.95 10.7,5.95 10.62,6.02 L6.78,9.69 L5.17,7.94 C5.1,7.86 4.98,7.85 4.89,7.92 L1,11.22 L1,2 C1,1.72 1.22,1.5 1.5,1.5 L12.5,1.5 C12.78,1.5 13,1.72 13,2 L13,8.24 L10.9,6.03 Z" id="Shape" fill="#D3AB78" fill-rule="nonzero"></path>
                            </g>
                        </g>
                    </g>
                </g>
            </g>
        </g>
    </g>
</svg>