<?xml version="1.0" encoding="UTF-8"?>
<svg width="32px" height="32px" viewBox="0 0 32 32" version="1.1" xmlns="http://www.w3.org/2000/svg" xmlns:xlink="http://www.w3.org/1999/xlink">
    <!-- Generator: Sketch 53.2 (72643) - https://sketchapp.com -->
    <title>icon/file/video_32</title>
    <desc>Created with Sketch.</desc>
    <g id="icon/file/video_32" stroke="none" stroke-width="1" fill="none" fill-rule="evenodd">
        <rect id="boxIcon" fill-opacity="0" fill="#FFFFFF" x="0" y="0" width="32" height="32"></rect>
        <g id="icon_file" transform="translate(3.000000, 0.000000)">
            <path d="M3,-5.62410556e-16 L17,-3.18699315e-15 L26,9 L26,29 C26,30.6568542 24.6568542,32 23,32 L3,32 C1.34314575,32 2.02906125e-16,30.6568542 0,29 L4.4408921e-16,3 C2.41183085e-16,1.34314575 1.34314575,3.04359188e-16 3,0 Z" id="Rectangle" fill="#58A8EF"></path>
            <path d="M17,0 L26,9 L19,9 C17.8954305,9 17,8.1045695 17,7 L17,0 Z" id="Rectangle" fill-opacity="0.23" fill="#383838"></path>
        </g>
        <path d="M19.1757359,15.5742641 L21.9757359,12.7742641 C22.2100505,12.5399495 22.5899495,12.5399495 22.8242641,12.7742641 C22.9367859,12.8867859 23,13.0393982 23,13.1985281 L23,23.8014719 C23,24.1328427 22.7313708,24.4014719 22.4,24.4014719 C22.2408701,24.4014719 22.0882578,24.3382578 21.9757359,24.2257359 L19.1757359,21.4257359 C19.0632141,21.3132141 19,21.1606018 19,21.0014719 L19,15.9985281 C19,15.8393982 19.0632141,15.6867859 19.1757359,15.5742641 Z M10,13.5 L16.8000002,13.5 C17.3522849,13.5 17.8000002,13.9477153 17.8000002,14.5 L17.8000002,22.5 C17.8000002,23.0522847 17.3522849,23.5 16.8000002,23.5 L10,23.5 C9.44771525,23.5 9,23.0522847 9,22.5 L9,14.5 C9,13.9477153 9.44771525,13.5 10,13.5 Z" id="Combined-Shape" fill-opacity="0.850000024" fill="#FFFFFF"></path>
    </g>
</svg>
